<svg width="33" height="33" viewBox="0 0 33 33" fill="none" xmlns="http://www.w3.org/2000/svg">
<g clip-path="url(#clip0_4_40)">
<path d="M14.388 4.51277C14.6341 4.21757 14.9393 3.97721 15.284 3.80722C15.6286 3.63722 16.0051 3.54136 16.3891 3.52581C16.7731 3.51026 17.1561 3.57538 17.5134 3.71695C17.8707 3.85853 18.1944 4.07342 18.4635 4.34777L18.612 4.51277L24.0199 11H28.1242C28.4128 10.9994 28.6982 11.0598 28.9618 11.1771C29.2255 11.2945 29.4613 11.4662 29.6539 11.681C29.8466 11.8959 29.9917 12.149 30.0797 12.4238C30.1677 12.6986 30.1967 12.9889 30.1647 13.2756L30.0382 14.3289L29.9007 15.3464L29.788 16.1082L29.6574 16.9263L29.5089 17.7857L29.3411 18.6767L29.1541 19.5855C29.0551 20.0434 28.9492 20.5026 28.8351 20.9592C28.5307 22.1664 28.1486 23.3528 27.6911 24.5108L27.3872 25.2533L27.093 25.9243L26.8152 26.521L26.686 26.7878L26.3436 27.4615C25.9036 28.3003 25.0731 28.7953 24.1945 28.8668L23.9745 28.875H9.01312C8.53239 28.8788 8.05969 28.7518 7.64554 28.5077C7.2314 28.2635 6.89139 27.9114 6.66187 27.489L6.34287 26.8703L6.09537 26.3615C6.0513 26.2678 6.00776 26.1739 5.96475 26.0796L5.68975 25.4623C5.06198 24.004 4.55251 22.4977 4.16625 20.9578C4.09164 20.6588 4.02013 20.359 3.95175 20.0585L3.7565 19.1675L3.58187 18.2958L3.42787 17.4529L3.29037 16.6458L3.17075 15.884L3.069 15.1786L2.94525 14.2395L2.8545 13.475C2.84657 13.4049 2.83878 13.3348 2.83112 13.2646C2.8023 12.9944 2.82759 12.7212 2.90552 12.4609C2.98344 12.2006 3.11244 11.9584 3.28499 11.7485C3.45753 11.5385 3.67017 11.3651 3.91048 11.2382C4.15078 11.1114 4.41395 11.0337 4.68462 11.0096L4.87162 11H8.9815L14.388 4.51277ZM27.3391 13.75H5.65537L5.74062 14.4155L5.84512 15.169L5.97162 15.9995L6.12012 16.8905C6.17512 17.1958 6.2315 17.5093 6.29337 17.8283L6.49 18.8004C6.5945 19.2927 6.71 19.7931 6.83375 20.2909C7.18287 21.6807 7.64268 23.0403 8.20875 24.3568L8.47825 24.9632L8.7285 25.4911L8.95262 25.9353L9.05162 26.125H23.9387L24.1505 25.7084L24.3939 25.2065L24.6606 24.6249C25.1652 23.4905 25.7427 21.9876 26.1662 20.2909C26.3381 19.6034 26.4907 18.9049 26.6269 18.2188L26.8194 17.204L26.9844 16.2292L27.0572 15.763L27.1879 14.8871L27.2937 14.1034L27.3391 13.75ZM13.7307 17.6495L14.4182 21.7745C14.4663 22.1288 14.3744 22.4878 14.1621 22.7755C13.9499 23.0632 13.634 23.2569 13.2813 23.3155C12.9286 23.3742 12.567 23.2932 12.2731 23.0897C11.9791 22.8862 11.776 22.5763 11.7067 22.2255L11.0192 18.1005C10.9836 17.92 10.9846 17.7341 11.0221 17.5539C11.0596 17.3737 11.1329 17.2029 11.2377 17.0515C11.3424 16.9002 11.4765 16.7714 11.6319 16.6729C11.7874 16.5743 11.961 16.508 12.1426 16.4778C12.3242 16.4476 12.5099 16.4541 12.6889 16.4971C12.8679 16.54 13.0364 16.6184 13.1845 16.7277C13.3326 16.837 13.4573 16.9749 13.5511 17.1332C13.645 17.2916 13.706 17.4671 13.7307 17.6495ZM20.691 16.5L20.8505 16.5179C21.1833 16.5728 21.4843 16.7482 21.6963 17.0106C21.9082 17.273 22.0163 17.6041 22 17.941L21.9821 18.1005L21.2946 22.2255C21.2363 22.5708 21.0484 22.8808 20.7694 23.0924C20.4903 23.3039 20.141 23.4009 19.7928 23.3637C19.4446 23.3266 19.1237 23.1579 18.8956 22.8922C18.6675 22.6266 18.5493 22.2838 18.5652 21.934L18.5831 21.7745L19.2706 17.6495C19.3255 17.3172 19.5004 17.0166 19.7623 16.8047C20.0241 16.5928 20.3545 16.4844 20.691 16.5ZM16.5 6.27277L12.5606 11H20.4394L16.5 6.27277Z" fill="#7E3D00"/>
</g>
<defs>
<clipPath id="clip0_4_40">
<rect width="33" height="33" fill="white"/>
</clipPath>
</defs>
</svg>
