<svg width="33" height="33" viewBox="0 0 33 33" fill="none" xmlns="http://www.w3.org/2000/svg">
<g clip-path="url(#clip0_4_48)">
<path d="M28.7 25.31C28.1478 22.8761 26.8469 20.6764 24.98 19.02C24.049 20.2562 22.8435 21.2592 21.4587 21.9498C20.0739 22.6405 18.5475 23.0001 17 23.0001C15.4524 23.0001 13.9261 22.6405 12.5412 21.9498C11.1564 21.2592 9.95096 20.2562 9.01997 19.02C7.15306 20.6764 5.85211 22.8761 5.29997 25.31C5.20018 25.753 5.20047 26.2127 5.3008 26.6555C5.40114 27.0984 5.599 27.5133 5.87997 27.87C6.1614 28.2231 6.51889 28.508 6.92578 28.7037C7.33267 28.8993 7.77848 29.0006 8.22997 29H25.77C26.2215 29.0006 26.6673 28.8993 27.0742 28.7037C27.4811 28.508 27.8385 28.2231 28.12 27.87C28.4009 27.5133 28.5988 27.0984 28.6991 26.6555C28.7995 26.2127 28.7998 25.753 28.7 25.31Z" fill="#7E3D00"/>
<path d="M17 21C21.4183 21 25 17.4183 25 13C25 8.58172 21.4183 5 17 5C12.5817 5 9 8.58172 9 13C9 17.4183 12.5817 21 17 21Z" fill="#7E3D00"/>
</g>
<defs>
<clipPath id="clip0_4_48">
<rect width="24" height="24" fill="white" transform="translate(5 5)"/>
</clipPath>
</defs>
</svg>
