<svg width="32" height="33" viewBox="0 0 32 33" fill="none" xmlns="http://www.w3.org/2000/svg">
<path d="M28.4142 23.5862L23.3372 18.5092C24.3862 16.9281 25.0002 15.0351 25.0002 13.0001C25.0002 7.48605 20.5142 3 15.0001 3C9.48605 3 5 7.48605 5 13.0001C5 18.5142 9.48605 23.0002 15.0001 23.0002C17.0351 23.0002 18.9281 22.3862 20.5092 21.3372L25.5862 26.4142C26.3662 27.1952 27.6342 27.1952 28.4142 26.4142C29.1952 25.6332 29.1952 24.3672 28.4142 23.5862ZM8.00003 13.0001C8.00003 9.14006 11.1401 6.00003 15.0001 6.00003C18.8601 6.00003 22.0002 9.14006 22.0002 13.0001C22.0002 16.8601 18.8601 20.0002 15.0001 20.0002C11.1401 20.0002 8.00003 16.8601 8.00003 13.0001Z" fill="#7E3D00"/>
</svg>
